<svg xmlns="http://www.w3.org/2000/svg" xmlns:xlink="http://www.w3.org/1999/xlink" version="1.0" width="13" height="12" fill="#d22856" enable-background="new 521.939 473.064 12.545 11.99" xml:space="preserve" style="">
  <g class="currentLayer" style="">
  <g id="svg_1" class="" fill="#d22856" fill-opacity="1">
    <path d="M6.234974121093728,11.992988281250007 c-0.21200000000000002,0 -0.41200000000000003,-0.09100000000000003 -0.552,-0.24900000000000003 c-3.798,-4.324 -4.644,-5.298 -4.8580000000000005,-5.572 l-0.004000000000000001,0 c-0.529,-0.6750000000000002 -0.8210000000000001,-1.518 -0.8210000000000001,-2.373 c0,-2.095 1.7040000000000002,-3.799 3.799,-3.799 c0.934,0 1.804,0.32000000000000006 2.484,0.8980000000000001 c0.6960000000000002,-0.5780000000000001 1.56,-0.8980000000000001 2.463,-0.8980000000000001 c2.095,0 3.799,1.7040000000000002 3.799,3.799 c0,0.909 -0.31800000000000006,1.754 -0.8960000000000001,2.3810000000000002 l-4.86,5.561 C6.647974121093739,11.901988281249999 6.446974121093717,11.992988281250007 6.234974121093728,11.992988281250007 L6.234974121093728,11.992988281250007 zM1.9899741210937236,5.2869882812499895 c0.20800000000000002,0.255 2.471,2.839 4.243,4.8580000000000005 l4.323,-4.944 c0.3400000000000001,-0.36900000000000005 0.52,-0.8600000000000001 0.52,-1.399 c0,-1.2850000000000001 -1.045,-2.331 -2.33,-2.331 c-0.7290000000000001,0 -1.421,0.3440000000000001 -1.9,0.9430000000000001 c-0.14200000000000002,0.17800000000000002 -0.35300000000000004,0.267 -0.5850000000000001,0.275 c-0.22700000000000004,-0.003000000000000001 -0.43900000000000006,-0.11100000000000002 -0.5750000000000001,-0.29400000000000004 c-0.44100000000000006,-0.5870000000000001 -1.129,-0.925 -1.887,-0.925 c-1.2850000000000001,0 -2.33,1.046 -2.33,2.331 c0,0.6780000000000002 0.275,1.171 0.507,1.467 C1.9799741210937327,5.273988281250013 1.9859741210937045,5.2799882812499845 1.9899741210937236,5.2869882812499895 z" id="svg_2" fill="#d22856" fill-opacity="1"/>
  </g>
  <rect fill="#ecabab" stroke-dashoffset="" fill-rule="nonzero" id="svg_3" x="1" y="2" width="0" height="0" style="color: rgb(231, 103, 103);"/>
  <image id="svg_4" x="6" y="4" width="0" height="1" style="color: rgb(231, 103, 103);" class=""/>
  <rect fill="#d22856" stroke-dashoffset="" fill-rule="nonzero" id="svg_5" x="1" y="2" width="7" height="4" style="color: rgb(231, 103, 103);"/>
  <rect fill="#d22856" stroke-dashoffset="" fill-rule="nonzero" id="svg_7" x="6" y="1" width="5" height="5" style="color: rgb(231, 103, 103);"/>
  <rect fill="#d22856" stroke-dashoffset="" fill-rule="nonzero" id="svg_9" x="10" y="3" width="1" height="1" style="color: rgb(231, 103, 103);"/>
  <rect fill="#d22856" stroke-dashoffset="" fill-rule="nonzero" id="svg_11" x="9" y="2" width="2" height="2" style="color: rgb(231, 103, 103);"/>
  <rect fill="#d22856" stroke-dashoffset="" fill-rule="nonzero" id="svg_13" x="3" y="5" width="7" height="3" style="color: rgb(231, 103, 103);"/>
  <rect fill="#d22856" stroke-dashoffset="" fill-rule="nonzero" id="svg_15" x="1" y="5" width="3" height="1" style="color: rgb(231, 103, 103);"/>
  <rect fill="#d22856" stroke-dashoffset="" fill-rule="nonzero" id="svg_17" x="5" y="7" width="3" height="2" style="color: rgb(231, 103, 103);"/>
  <rect fill="#d22856" stroke-dashoffset="" fill-rule="nonzero" id="svg_19" x="5" y="8" width="1" height="2" style="color: rgb(231, 103, 103);"/>
  <rect fill="#d22856" stroke-dashoffset="" fill-rule="nonzero" id="svg_21" x="3" y="7" width="2" height="1" style="color: rgb(231, 103, 103);"/>
  <path fill="#d22856" fill-opacity="1" stroke="none" stroke-opacity="1" stroke-width="1" stroke-dasharray="none" stroke-linejoin="miter" stroke-linecap="butt" stroke-dashoffset="" fill-rule="nonzero" opacity="1" marker-start="" marker-mid="" marker-end="" d="M4,8 C4,6.895027624309392 4.895027624309392,6 6,6 C7.104972375690608,6 8,6.895027624309392 8,8 C8,9.104972375690608 7.104972375690608,10 6,10 C4.895027624309392,10 4,9.104972375690608 4,8 Z" id="svg_23"/>
  <path fill="#d22856" fill-opacity="1" stroke="none" stroke-opacity="1" stroke-width="1" stroke-dasharray="none" stroke-linejoin="miter" stroke-linecap="butt" stroke-dashoffset="" fill-rule="nonzero" opacity="1" marker-start="" marker-mid="" marker-end="" d="M6,6.5 C6,6.223756906077348 6.447513812154696,6 7,6 C7.552486187845304,6 8,6.223756906077348 8,6.5 C8,6.776243093922652 7.552486187845304,7 7,7 C6.447513812154696,7 6,6.776243093922652 6,6.5 Z" id="svg_25"/>
  <path fill="#d22856" fill-opacity="1" stroke="none" stroke-opacity="1" stroke-width="1" stroke-dasharray="none" stroke-linejoin="miter" stroke-linecap="butt" stroke-dashoffset="" fill-rule="nonzero" opacity="1" marker-start="" marker-mid="" marker-end="" d="M3,3.5 C3,2.1187845303867405 3.223756906077348,1 3.5,1 C3.776243093922652,1 4,2.1187845303867405 4,3.5 C4,4.8812154696132595 3.776243093922652,6 3.5,6 C3.223756906077348,6 3,4.8812154696132595 3,3.5 Z" id="svg_27"/>
  <path fill="#d22856" fill-opacity="1" stroke="none" stroke-opacity="1" stroke-width="1" stroke-dasharray="none" stroke-linejoin="miter" stroke-linecap="butt" stroke-dashoffset="" fill-rule="nonzero" opacity="1" marker-start="" marker-mid="" marker-end="" d="M2,2 C2,1.4475138121546962 2.8950276243093924,1 4,1 C5.104972375690608,1 6,1.4475138121546962 6,2 C6,2.552486187845304 5.104972375690608,3 4,3 C2.8950276243093924,3 2,2.552486187845304 2,2 Z" id="svg_29"/>
  <path fill="#d22856" fill-opacity="1" stroke="none" stroke-opacity="1" stroke-width="1" stroke-dasharray="none" stroke-linejoin="miter" stroke-linecap="butt" stroke-dashoffset="" fill-rule="nonzero" opacity="1" marker-start="" marker-mid="" marker-end="" d="M8,3.5 C8,2.6712707182320443 8.895027624309392,2 10,2 C11.104972375690608,2 12,2.6712707182320443 12,3.5 C12,4.328729281767956 11.104972375690608,5 10,5 C8.895027624309392,5 8,4.328729281767956 8,3.5 Z" id="svg_31"/>
  <path fill="#d22856" fill-opacity="1" stroke="none" stroke-opacity="1" stroke-width="1" stroke-dasharray="none" stroke-linejoin="miter" stroke-linecap="butt" stroke-dashoffset="" fill-rule="nonzero" opacity="1" marker-start="" marker-mid="" marker-end="" d="M6,7.5 C6,6.671270718232044 6.671270718232044,6 7.5,6 C8.328729281767956,6 9,6.671270718232044 9,7.5 C9,8.328729281767956 8.328729281767956,9 7.5,9 C6.671270718232044,9 6,8.328729281767956 6,7.5 Z" id="svg_33"/>
  <path fill="#d22856" fill-opacity="1" stroke="none" stroke-opacity="1" stroke-width="1" stroke-dasharray="none" stroke-linejoin="miter" stroke-linecap="butt" stroke-dashoffset="" fill-rule="nonzero" opacity="1" marker-start="" marker-mid="" marker-end="" d="M1,5.5 C1,4.671270718232044 1.6712707182320443,4 2.5,4 C3.3287292817679557,4 4,4.671270718232044 4,5.5 C4,6.328729281767956 3.3287292817679557,7 2.5,7 C1.6712707182320443,7 1,6.328729281767956 1,5.5 Z" id="svg_35"/>
  <path fill="#d22856" fill-opacity="1" stroke="none" stroke-opacity="1" stroke-width="1" stroke-dasharray="none" stroke-linejoin="miter" stroke-linecap="butt" stroke-dashoffset="" fill-rule="nonzero" opacity="1" marker-start="" marker-mid="" marker-end="" d="M6,8.5 C6,7.671270718232044 6.223756906077348,7 6.5,7 C6.776243093922652,7 7,7.671270718232044 7,8.5 C7,9.328729281767956 6.776243093922652,10 6.5,10 C6.223756906077348,10 6,9.328729281767956 6,8.5 Z" id="svg_37"/>
  <path fill="#d22856" fill-opacity="1" stroke="none" stroke-opacity="1" stroke-width="1" stroke-dasharray="none" stroke-linejoin="miter" stroke-linecap="butt" stroke-dashoffset="" fill-rule="nonzero" opacity="1" marker-start="" marker-mid="" marker-end="" d="M5,9 C5,7.895027624309392 5.447513812154696,7 6,7 C6.552486187845304,7 7,7.895027624309392 7,9 C7,10.104972375690608 6.552486187845304,11 6,11 C5.447513812154696,11 5,10.104972375690608 5,9 Z" id="svg_39"/>
  </g>
</svg>
