<?xml version="1.0" encoding="UTF-8"?><!DOCTYPE svg PUBLIC "-//W3C//DTD SVG 1.1//EN" "http://www.w3.org/Graphics/SVG/1.1/DTD/svg11.dtd"><svg xmlns="http://www.w3.org/2000/svg" xmlns:xlink="http://www.w3.org/1999/xlink"><symbol id="icon-editor-contrast" viewBox="-35.422 -7.96 31.92 31.92">
  <path fill="#7e868f" d="M-19.462-3.96c6.595,0,11.96,5.365,11.96,11.96s-5.365,11.96-11.96,11.96S-31.422,14.595-31.422,8 S-26.057-3.96-19.462-3.96 M-19.462-7.96c-8.814,0-15.96,7.145-15.96,15.96c0,8.813,7.146,15.96,15.96,15.96S-3.502,16.813-3.502,8 C-3.502-0.815-10.648-7.96-19.462-7.96L-19.462-7.96z"/>
  <path fill="#7e868f" d="M-19.462,16.331c4.706,0,8.52-3.813,8.52-8.52c0-4.705-3.813-8.519-8.52-8.519"/>
</symbol><symbol id="icon-editor-crop" viewBox="0 0 48 48">
  <path fill="none" d="M0,0h48v48H0V0z"/>
  <path d="M34,30h4V14c0-2.21-1.79-4-4-4H18v4h16V30z M14,34V2h-4v8H2v4h8v20c0,2.21,1.79,4,4,4h20v8h4v-8h8v-4H14z"/>
</symbol><symbol id="icon-editor-fill" viewBox="0 0 48 48">
  <path fill="none" d="M0,0h48v48H0V0z"/>
  <path d="M33.12,17.88L15.24,0l-2.83,2.83l4.76,4.76L6.88,17.88c-1.17,1.17-1.17,3.07,0,4.24l11,11C18.46,33.71,19.23,34,20,34 s1.54-0.29,2.12-0.88l11-11C34.29,20.95,34.29,19.05,33.12,17.88z M10.41,20L20,10.42L29.59,20H10.41z M38,23c0,0-4,4.33-4,7 c0,2.21,1.79,4,4,4s4-1.79,4-4C42,27.33,38,23,38,23z"/>
  <rect y="40" width="48" height="3"/>
</symbol><symbol id="icon-facebook" viewBox="0 0 8.673 18.944">
  <path d="M6.275,3.357c0.799,0,1.599,0,2.398,0c0-1.119,0-2.238,0-3.357c-0.959,0-1.92,0-2.878,0C2.656,0.181,1.54,2.387,1.948,6.115 H0v3.517h1.958c0,3.104,0,6.208,0,9.312c1.279,0,2.558,0,3.837,0c0-3.104,0-6.208,0-9.312h2.857V6.115H5.786 C5.765,5.07,5.75,3.709,6.275,3.357z"/>
</symbol><symbol id="icon-heart-off" viewBox="521.939 473.064 12.545 11.99">
  <g>
    <path d="M528.174,485.055c-0.212,0-0.412-0.091-0.552-0.249c-3.798-4.324-4.644-5.298-4.858-5.572l-0.004,0.0 c-0.529-0.675-0.821-1.518-0.821-2.373c0-2.095,1.704-3.799,3.799-3.799c0.934,0,1.804,0.32,2.484,0.898 c0.696-0.578,1.56-0.898,2.463-0.898c2.095,0,3.799,1.704,3.799,3.799c0,0.909-0.318,1.754-0.896,2.381l-4.86,5.561 C528.587,484.964,528.386,485.055,528.174,485.055L528.174,485.055z M523.929,478.349c0.208,0.255,2.471,2.839,4.243,4.858 l4.323-4.944c0.34-0.369,0.52-0.86,0.52-1.399c0-1.285-1.045-2.331-2.33-2.331c-0.729,0-1.421,0.344-1.9,0.943 c-0.142,0.178-0.353,0.267-0.585,0.275c-0.227-0.003-0.439-0.111-0.575-0.294c-0.441-0.587-1.129-0.925-1.887-0.925 c-1.285,0-2.33,1.046-2.33,2.331c0,0.678,0.275,1.171,0.507,1.467C523.919,478.336,523.925,478.342,523.929,478.349z"/>
  </g>
</symbol><symbol id="icon-heart-on">
  <g class="currentLayer" style="">
  <g id="svg_1" class="" fill="#d22856" fill-opacity="1">
    <path d="M6.234974121093728,11.992988281250007 c-0.21200000000000002,0 -0.41200000000000003,-0.09100000000000003 -0.552,-0.24900000000000003 c-3.798,-4.324 -4.644,-5.298 -4.8580000000000005,-5.572 l-0.004000000000000001,0 c-0.529,-0.6750000000000002 -0.8210000000000001,-1.518 -0.8210000000000001,-2.373 c0,-2.095 1.7040000000000002,-3.799 3.799,-3.799 c0.934,0 1.804,0.32000000000000006 2.484,0.8980000000000001 c0.6960000000000002,-0.5780000000000001 1.56,-0.8980000000000001 2.463,-0.8980000000000001 c2.095,0 3.799,1.7040000000000002 3.799,3.799 c0,0.909 -0.31800000000000006,1.754 -0.8960000000000001,2.3810000000000002 l-4.86,5.561 C6.647974121093739,11.901988281249999 6.446974121093717,11.992988281250007 6.234974121093728,11.992988281250007 L6.234974121093728,11.992988281250007 zM1.9899741210937236,5.2869882812499895 c0.20800000000000002,0.255 2.471,2.839 4.243,4.8580000000000005 l4.323,-4.944 c0.3400000000000001,-0.36900000000000005 0.52,-0.8600000000000001 0.52,-1.399 c0,-1.2850000000000001 -1.045,-2.331 -2.33,-2.331 c-0.7290000000000001,0 -1.421,0.3440000000000001 -1.9,0.9430000000000001 c-0.14200000000000002,0.17800000000000002 -0.35300000000000004,0.267 -0.5850000000000001,0.275 c-0.22700000000000004,-0.003000000000000001 -0.43900000000000006,-0.11100000000000002 -0.5750000000000001,-0.29400000000000004 c-0.44100000000000006,-0.5870000000000001 -1.129,-0.925 -1.887,-0.925 c-1.2850000000000001,0 -2.33,1.046 -2.33,2.331 c0,0.6780000000000002 0.275,1.171 0.507,1.467 C1.9799741210937327,5.273988281250013 1.9859741210937045,5.2799882812499845 1.9899741210937236,5.2869882812499895 z" id="svg_2" fill="#d22856" fill-opacity="1"/>
  </g>
  <rect fill="#ecabab" stroke-dashoffset="" fill-rule="nonzero" id="svg_3" x="1" y="2" width="0" height="0" style="color: rgb(231, 103, 103);"/>
  <image id="svg_4" x="6" y="4" width="0" height="1" style="color: rgb(231, 103, 103);" xlink:href="logo/vector_paint_icon256.png" class=""/>
  <rect fill="#d22856" stroke-dashoffset="" fill-rule="nonzero" id="svg_5" x="1" y="2" width="7" height="4" style="color: rgb(231, 103, 103);"/>
  <rect fill="#d22856" stroke-dashoffset="" fill-rule="nonzero" id="svg_7" x="6" y="1" width="5" height="5" style="color: rgb(231, 103, 103);"/>
  <rect fill="#d22856" stroke-dashoffset="" fill-rule="nonzero" id="svg_9" x="10" y="3" width="1" height="1" style="color: rgb(231, 103, 103);"/>
  <rect fill="#d22856" stroke-dashoffset="" fill-rule="nonzero" id="svg_11" x="9" y="2" width="2" height="2" style="color: rgb(231, 103, 103);"/>
  <rect fill="#d22856" stroke-dashoffset="" fill-rule="nonzero" id="svg_13" x="3" y="5" width="7" height="3" style="color: rgb(231, 103, 103);"/>
  <rect fill="#d22856" stroke-dashoffset="" fill-rule="nonzero" id="svg_15" x="1" y="5" width="3" height="1" style="color: rgb(231, 103, 103);"/>
  <rect fill="#d22856" stroke-dashoffset="" fill-rule="nonzero" id="svg_17" x="5" y="7" width="3" height="2" style="color: rgb(231, 103, 103);"/>
  <rect fill="#d22856" stroke-dashoffset="" fill-rule="nonzero" id="svg_19" x="5" y="8" width="1" height="2" style="color: rgb(231, 103, 103);"/>
  <rect fill="#d22856" stroke-dashoffset="" fill-rule="nonzero" id="svg_21" x="3" y="7" width="2" height="1" style="color: rgb(231, 103, 103);"/>
  <path fill="#d22856" fill-opacity="1" stroke="none" stroke-opacity="1" stroke-width="1" stroke-dasharray="none" stroke-linejoin="miter" stroke-linecap="butt" stroke-dashoffset="" fill-rule="nonzero" opacity="1" marker-start="" marker-mid="" marker-end="" d="M4,8 C4,6.895027624309392 4.895027624309392,6 6,6 C7.104972375690608,6 8,6.895027624309392 8,8 C8,9.104972375690608 7.104972375690608,10 6,10 C4.895027624309392,10 4,9.104972375690608 4,8 Z" id="svg_23"/>
  <path fill="#d22856" fill-opacity="1" stroke="none" stroke-opacity="1" stroke-width="1" stroke-dasharray="none" stroke-linejoin="miter" stroke-linecap="butt" stroke-dashoffset="" fill-rule="nonzero" opacity="1" marker-start="" marker-mid="" marker-end="" d="M6,6.5 C6,6.223756906077348 6.447513812154696,6 7,6 C7.552486187845304,6 8,6.223756906077348 8,6.5 C8,6.776243093922652 7.552486187845304,7 7,7 C6.447513812154696,7 6,6.776243093922652 6,6.5 Z" id="svg_25"/>
  <path fill="#d22856" fill-opacity="1" stroke="none" stroke-opacity="1" stroke-width="1" stroke-dasharray="none" stroke-linejoin="miter" stroke-linecap="butt" stroke-dashoffset="" fill-rule="nonzero" opacity="1" marker-start="" marker-mid="" marker-end="" d="M3,3.5 C3,2.1187845303867405 3.223756906077348,1 3.5,1 C3.776243093922652,1 4,2.1187845303867405 4,3.5 C4,4.8812154696132595 3.776243093922652,6 3.5,6 C3.223756906077348,6 3,4.8812154696132595 3,3.5 Z" id="svg_27"/>
  <path fill="#d22856" fill-opacity="1" stroke="none" stroke-opacity="1" stroke-width="1" stroke-dasharray="none" stroke-linejoin="miter" stroke-linecap="butt" stroke-dashoffset="" fill-rule="nonzero" opacity="1" marker-start="" marker-mid="" marker-end="" d="M2,2 C2,1.4475138121546962 2.8950276243093924,1 4,1 C5.104972375690608,1 6,1.4475138121546962 6,2 C6,2.552486187845304 5.104972375690608,3 4,3 C2.8950276243093924,3 2,2.552486187845304 2,2 Z" id="svg_29"/>
  <path fill="#d22856" fill-opacity="1" stroke="none" stroke-opacity="1" stroke-width="1" stroke-dasharray="none" stroke-linejoin="miter" stroke-linecap="butt" stroke-dashoffset="" fill-rule="nonzero" opacity="1" marker-start="" marker-mid="" marker-end="" d="M8,3.5 C8,2.6712707182320443 8.895027624309392,2 10,2 C11.104972375690608,2 12,2.6712707182320443 12,3.5 C12,4.328729281767956 11.104972375690608,5 10,5 C8.895027624309392,5 8,4.328729281767956 8,3.5 Z" id="svg_31"/>
  <path fill="#d22856" fill-opacity="1" stroke="none" stroke-opacity="1" stroke-width="1" stroke-dasharray="none" stroke-linejoin="miter" stroke-linecap="butt" stroke-dashoffset="" fill-rule="nonzero" opacity="1" marker-start="" marker-mid="" marker-end="" d="M6,7.5 C6,6.671270718232044 6.671270718232044,6 7.5,6 C8.328729281767956,6 9,6.671270718232044 9,7.5 C9,8.328729281767956 8.328729281767956,9 7.5,9 C6.671270718232044,9 6,8.328729281767956 6,7.5 Z" id="svg_33"/>
  <path fill="#d22856" fill-opacity="1" stroke="none" stroke-opacity="1" stroke-width="1" stroke-dasharray="none" stroke-linejoin="miter" stroke-linecap="butt" stroke-dashoffset="" fill-rule="nonzero" opacity="1" marker-start="" marker-mid="" marker-end="" d="M1,5.5 C1,4.671270718232044 1.6712707182320443,4 2.5,4 C3.3287292817679557,4 4,4.671270718232044 4,5.5 C4,6.328729281767956 3.3287292817679557,7 2.5,7 C1.6712707182320443,7 1,6.328729281767956 1,5.5 Z" id="svg_35"/>
  <path fill="#d22856" fill-opacity="1" stroke="none" stroke-opacity="1" stroke-width="1" stroke-dasharray="none" stroke-linejoin="miter" stroke-linecap="butt" stroke-dashoffset="" fill-rule="nonzero" opacity="1" marker-start="" marker-mid="" marker-end="" d="M6,8.5 C6,7.671270718232044 6.223756906077348,7 6.5,7 C6.776243093922652,7 7,7.671270718232044 7,8.5 C7,9.328729281767956 6.776243093922652,10 6.5,10 C6.223756906077348,10 6,9.328729281767956 6,8.5 Z" id="svg_37"/>
  <path fill="#d22856" fill-opacity="1" stroke="none" stroke-opacity="1" stroke-width="1" stroke-dasharray="none" stroke-linejoin="miter" stroke-linecap="butt" stroke-dashoffset="" fill-rule="nonzero" opacity="1" marker-start="" marker-mid="" marker-end="" d="M5,9 C5,7.895027624309392 5.447513812154696,7 6,7 C6.552486187845304,7 7,7.895027624309392 7,9 C7,10.104972375690608 6.552486187845304,11 6,11 C5.447513812154696,11 5,10.104972375690608 5,9 Z" id="svg_39"/>
  </g>
</symbol><symbol id="icon-mail" viewBox="0 0 17.988 13.966">
  <g>
    <g>
      <g>
        <path fill="#FFFFFF" d="M14.914,1.814C16.111,0.816,15.816,0,14.257,0H3.731c-1.56,0-1.854,0.816-0.657,1.814l3.742,3.118 c1.197,0.998,3.158,0.998,4.355,0L14.914,1.814z"/>
      </g>
      <g>
        <path fill="#FFFFFF" d="M11.913,7.044C10.715,8.042,9.718,8.869,9.695,8.88c0,0,0,0-0.02,0.013 C9.601,8.949,9.523,8.995,9.44,9.029C9.407,9.044,9.374,9.063,9.34,9.077c-0.11,0.034-0.223,0.058-0.335,0.059 c-0.003,0-0.007,0.001-0.01,0.001c0,0,0,0-0.001,0s-0.001,0-0.001,0c-0.003,0-0.007-0.001-0.01-0.001 C8.87,9.134,8.759,9.111,8.648,9.077C8.614,9.063,8.58,9.044,8.548,9.029c-0.083-0.034-0.16-0.08-0.235-0.136C8.293,8.88,8.293,8.88,8.293,8.88c-0.022-0.012-1.02-0.838-2.218-1.836L2.178,3.796C0.979,2.798,0,3.257,0,4.816v6.315 c0,1.56,1.275,2.835,2.835,2.835h12.318c1.56,0,2.835-1.275,2.835-2.835V4.816c0-1.559-0.979-2.018-2.178-1.02L11.913,7.044z"/>
      </g>
    </g>
  </g>
</symbol><symbol id="icon-map-marker" viewBox="0 0 35.983 35.983">
  <circle fill="#FFFFFF" cx="17.991" cy="17.991" r="17.991"/>
  <circle fill="#D22856" cx="17.991" cy="17.991" r="7.866"/>
</symbol><symbol id="icon-no" viewBox="0 0 26.752 26.752">
  <path d="M15.497,13.376L26.312,2.562c0.586-0.585,0.586-1.535,0-2.121s-1.535-0.586-2.121,0L13.376,11.255L2.562,0.439 c-0.586-0.586-1.535-0.586-2.121,0c-0.586,0.585-0.586,1.535,0,2.121l10.814,10.815L0.439,24.19c-0.586,0.586-0.586,1.535,0,2.121 c0.293,0.293,0.677,0.439,1.061,0.439s0.768-0.146,1.061-0.439l10.815-10.814L24.19,26.312c0.293,0.293,0.677,0.439,1.061,0.439 s0.768-0.146,1.061-0.439c0.586-0.586,0.586-1.535,0-2.121L15.497,13.376z"/>
</symbol><symbol id="icon-phone" viewBox="0 0 19.697 19.696">
  <path fill="#FFFFFF" d="M9.848,0C6.34,0,2.823,0.628,1.546,1.878c-1.058,1.04-1.412,2.874-1.53,4.035c0,0-0.016,0.115-0.016,0.165 c0,0.454,0.369,0.82,0.819,0.82c0.054,0,2.028-0.161,3.218-0.259c0.029-0.004,0.058-0.008,0.086-0.017 C4.566,6.61,4.924,6.25,4.924,5.803l0.003-1.617c0-0.5,0.407-0.902,0.907-0.902h8.027c0.499,0,0.907,0.402,0.907,0.902l0.003,1.617 c0,0.447,0.356,0.808,0.802,0.82c0.027,0.009,0.056,0.013,0.085,0.017c1.19,0.098,3.164,0.259,3.217,0.259 c0.451,0,0.822-0.366,0.822-0.82c0-0.05-0.018-0.165-0.018-0.165c-0.118-1.161-0.472-2.995-1.53-4.035 C16.873,0.628,13.356,0,9.848,0z M9.848,10.67c-0.908,0-1.643,0.733-1.643,1.64c0,0.907,0.734,1.641,1.643,1.641 c0.906,0,1.641-0.733,1.641-1.641C11.488,11.404,10.754,10.67,9.848,10.67z M8.616,6.975V5.951c0-0.567-0.46-1.026-1.025-1.026 c-0.566,0-1.024,0.459-1.024,1.026v1.024l-5.537,5.913c-0.382,0.376-0.619,0.894-0.619,1.47v1.646c0,0.907,0.734,1.643,1.641,1.643 h0.411v1.023c0,0.568,0.46,1.026,1.026,1.026c0.565,0,1.024-0.458,1.024-1.026v-1.023h10.669v1.023c0,0.568,0.46,1.026,1.025,1.026 c0.567,0,1.026-0.458,1.026-1.026v-1.023h0.411c0.905,0,1.64-0.735,1.64-1.643v-1.646c0-0.576-0.236-1.094-0.618-1.47L13.13,6.975 V5.951c0-0.567-0.459-1.026-1.024-1.026c-0.567,0-1.027,0.459-1.027,1.026v1.024H8.616z M9.848,9.028 c1.814,0,3.282,1.468,3.282,3.282s-1.468,3.282-3.282,3.282c-1.813,0-3.281-1.468-3.281-3.282S8.034,9.028,9.848,9.028z"/>
</symbol><symbol id="icon-quotes" viewBox="0 0 78.672 63.789">
  <g>
    <path d="M34.967,7.063L30.713,0C28.272,1.495,0,12.207,0,39.617c0,7.231,0.336,24.172,18.9,24.172 c11.187,0,13.94-10.279,13.94-13.584c0-21.977-21.382-14.177-21.382-14.177C11.458,17.957,31.263,9.184,34.967,7.063z"/>
  </g>
  <g>
    <path d="M78.672,7.063L74.418,0c-2.44,1.495-30.713,12.207-30.713,39.617c0,7.231,0.337,24.172,18.9,24.172 c11.187,0,13.939-10.279,13.939-13.584c0-21.977-21.381-14.177-21.381-14.177C55.165,17.957,74.969,9.184,78.672,7.063z"/>
  </g>
</symbol><symbol id="icon-review-arrow-left" viewBox="0 0 21.706 41.719">
  <path d="M2.045,20.859L21.458,1.446c0.331-0.331,0.331-0.867,0-1.198c-0.33-0.331-0.867-0.331-1.197,0L0.248,20.261 c-0.331,0.33-0.331,0.867,0,1.197l20.013,20.013c0.164,0.165,0.382,0.248,0.599,0.248s0.434-0.083,0.599-0.248 c0.331-0.331,0.331-0.867,0-1.198L2.045,20.859z"/>
</symbol><symbol id="icon-review-arrow-right" viewBox="0 0 21.706 41.719">
  <path d="M19.661,20.859L0.248,1.446c-0.331-0.331-0.331-0.867,0-1.198c0.33-0.331,0.867-0.331,1.197,0l20.013,20.012 c0.33,0.33,0.33,0.867,0,1.197L1.445,41.471c-0.164,0.165-0.382,0.248-0.599,0.248s-0.434-0.083-0.599-0.248 c-0.331-0.331-0.331-0.867,0-1.198L19.661,20.859z"/>
</symbol><symbol id="icon-timer" viewBox="0 0 298 345.097">
  <path d="M264.568,102.055l5.355-5.355c7.717-7.717,9.124-18.938,3.126-24.935c-5.997-5.997-17.217-4.59-24.934,3.127l-5.386,5.385 C221.768,63.292,196.11,51.875,168,48.297v-9.583h7.658c10.914,0,19.843-8.711,19.843-19.357S186.573,0,175.659,0h-53.317  c-10.913,0-19.842,8.711-19.842,19.357s8.929,19.357,19.842,19.357H130v9.583C56.681,57.629,0,120.244,0,196.097  c0,82.291,66.709,149,149,149c82.29,0,149-66.709,149-149C298,160.434,285.465,127.703,264.568,102.055z M149,306.264 c-60.844,0-110.167-49.323-110.167-110.167S88.156,85.93,149,85.93c60.843,0,110.167,49.323,110.167,110.167  S209.843,306.264,149,306.264z"/>
</symbol><symbol id="icon-twitter" viewBox="0 0 17.5 14.663">
  <g id="W6EeEF_1_">
    <g>
      <path fill-rule="evenodd" clip-rule="evenodd" d="M11.283,0.153c1.736-0.485,3.074,0.263,3.685,1.151 c0.694-0.226,1.372-0.47,2.072-0.691c-0.004,0.841-0.538,1.478-0.883,1.727C16.861,2.506,17.5,1.86,17.5,1.86 c-0.175,0.976-1.035,1.746-1.611,1.977C15.65,10.429,12.617,14.793,5.507,14.66c-0.538,0,0.077,0-0.46,0 c-0.422,0-4.29-0.45-5.047-1.843c2.341,0.192,4.011-0.412,4.835-1.15c-0.989-0.293-2.761-0.464-3.07-2.881 c0.362,0.105,0.583,0.223,1.228,0.117C1.757,8.067,0.385,7.366,0.461,5.218c0.294,0.32,1.1,0.523,1.381,0.461 c-0.725-0.235-2.03-3.281-0.921-4.836C2.794,2.654,4.769,4.364,8.29,4.528C8.506,2.288,9.461,0.787,11.283,0.153z"/>
    </g>
  </g>
</symbol><symbol id="icon-yes" viewBox="-82.357 4.875 21.698 16.09">
  <path d="M-60.953,5.167c-0.391-0.391-1.023-0.391-1.414,0L-75.75,18.551l-4.9-4.9c-0.391-0.391-1.023-0.391-1.414,0 s-0.391,1.023,0,1.414l5.607,5.607c0.195,0.195,0.451,0.293,0.707,0.293s0.512-0.098,0.707-0.293l14.09-14.0 C-60.562,6.191-60.562,5.558-60.953,5.167z"/>
</symbol><symbol id="icon-youtube" viewBox="0 0 14.64 13.96">
  <path d="M1.775,13.78C0.799,14.257,0,13.758,0,12.671V1.29c0-1.088,0.799-1.585,1.775-1.109l12.133,5.932 c0.975,0.478,0.975,1.258,0,1.736L1.775,13.78z"/>
</symbol></svg>